<svg width="21" height="18" viewBox="0 0 21 18" fill="none" xmlns="http://www.w3.org/2000/svg">
<path id="LinkedIn" d="M0.792725 2.09091C0.792725 1.48484 1.01796 0.984836 1.4684 0.590909C1.91884 0.196964 2.50444 0 3.22516 0C3.93301 0 4.50572 0.193927 4.9433 0.581818C5.39375 0.981818 5.61898 1.50302 5.61898 2.14545C5.61898 2.72727 5.4002 3.21211 4.96261 3.6C4.51216 4 3.92014 4.2 3.18655 4.2H3.16724C2.45938 4.2 1.88668 4 1.4491 3.6C1.01151 3.2 0.792725 2.69696 0.792725 2.09091ZM1.04369 18V5.85455H5.3294V18H1.04369ZM7.70392 18H11.9896V11.2182C11.9896 10.7939 12.0411 10.4667 12.1441 10.2364C12.3243 9.82424 12.5977 9.47575 12.9645 9.19091C13.3313 8.90605 13.7914 8.76364 14.3448 8.76364C15.7863 8.76364 16.507 9.67878 16.507 11.5091V18H20.7927V11.0364C20.7927 9.24242 20.3423 7.88182 19.4414 6.95455C18.5405 6.02727 17.35 5.56364 15.8699 5.56364C14.2097 5.56364 12.9163 6.23636 11.9896 7.58182V7.61818H11.9703L11.9896 7.58182V5.85455H7.70392C7.72966 6.24242 7.74253 7.44847 7.74253 9.47273C7.74253 11.497 7.72966 14.3394 7.70392 18Z" fill="#C69B7B"/>
</svg>
